# xmcd
# 
# Track frame offsets:
#     150
#     18015
#     45079
#     67689
#     87698
#     101913
#     122828
#     149303
#     165659
#     190860
#     207284
# 
# Disc length: 3109
# 
# Revision: 0
# Processed by: cddbd v1.5.2PL0 Copyright (c) Steve Scherf et al.
# Submitted via: fre:ac v1.0.31
# 
DISCID=8d0c230b
DTITLE=Tim Doc Fritz Liebert - ÜberLandFahrt
DYEAR=0
DGENRE=Folk
TTITLE0=Oles Boot
TTITLE1=Zurück
TTITLE2=Durch die Ebene - Zug nach Brasov - ÜberLandFahrt
TTITLE3=Dieser Tag
TTITLE4=Sie ist wieder weg
TTITLE5=Paulis Rag
TTITLE6=In voller Fahrt - Durchs Delta
TTITLE7=Die Gedanken (Zu Dir)
TTITLE8=Katrinlied
TTITLE9=Honky Hora
TTITLE10=Ade zur guten Nacht
EXTD=
EXTT0=
EXTT1=
EXTT2=
EXTT3=
EXTT4=
EXTT5=
EXTT6=
EXTT7=
EXTT8=
EXTT9=
EXTT10=
PLAYORDER=
